<?xml version="1.0" encoding="utf-8"?>
<!-- Generator: Adobe Illustrator 26.0.2, SVG Export Plug-In . SVG Version: 6.00 Build 0)  -->
<svg version="1.1" id="Layer_1" xmlns="http://www.w3.org/2000/svg" xmlns:xlink="http://www.w3.org/1999/xlink" x="0px" y="0px"
	 viewBox="0 0 500 500" style="enable-background:new 0 0 500 500;" xml:space="preserve">
<path d="M250,22.9C124.6,22.9,22.9,124.6,22.9,250S124.6,477.1,250,477.1S477.1,375.4,477.1,250S375.4,22.9,250,22.9z M257.6,367.3
	v31.6H133.2v0v-29.5l75.4-160c6.9-15.2,13.9-35.1,13.9-59.8c0-20.8-11.7-31.2-26.4-31.2c-14.7,0-26.9,10.4-26.9,31.2v20.8h-35.1
	v-19.9c0-22.5,6.5-36.4,17.3-47.3c10.8-10.4,27.7-16.5,44.7-16.5c16.9,0,32.5,5.2,43.3,15.6c10.8,10.4,18.2,25.6,18.2,48.6
	s-8.2,49.4-17.8,69.8l-68.9,146.5H257.6z M366.8,240.1h-23.6V129.1c0-13.7-8.2-20.7-18.1-20.7c-9.9,0-17.8,7-17.8,20.7v111.1h-23.6
	v-151h22.7v11.7c2-3.5,6.1-7.3,9.3-9.3c4.7-2.9,10.2-4.7,16.3-4.7c11.4,0,19.2,3.8,25.7,11.1c6.1,6.7,9,14.9,9,31.2V240.1z"/>
</svg>
